# xmcd CD database file
#
# Track frame offsets:
#	150
#	21477
#	41652
#	54957
#	69282
#	82287
#	94027
#	109872
#	123625
#	135430
#	147890
#	162985
#	177572
#	190587
#	203180
#	217295
#	230857
#	244585
#	256792
#	270762
#
# Disc length: 3790 seconds
#
# Revision: 0
# Processed by: cddbd v1.5PL3 Copyright (c) Steve Scherf et al.
# Submitted via: CDex 1.51
#
DISCID=250ecc14
DTITLE=Various Artist - And That's Jazz
DYEAR=1900
DGENRE=Jazz
TTITLE0=Tea for Two
TTITLE1=It Don't Mean A Thing If It Ain't Got That Swing
TTITLE2=Way Down Yonder in New Orleans
TTITLE3=My Monday Date
TTITLE4=I Got Rhythm
TTITLE5=At Sundown
TTITLE6=High Society
TTITLE7=Trumbology
TTITLE8=Begin The Beguine
TTITLE9=Heigh Ho
TTITLE10=London Cafe Blues
TTITLE11=Beulah's Boogie
TTITLE12=At The Jazz Band Hall
TTITLE13=Sweet Georgia Brown
TTITLE14=The Stampede
TTITLE15=Struttin' With Some Barbecue
TTITLE16=Kissin' Bug
TTITLE17=All God's Children Got Rhythm
TTITLE18=Waking the Dog
TTITLE19=Who's Sorry Now
EXTD=
EXTT0=
EXTT1=
EXTT2=
EXTT3=
EXTT4=
EXTT5=
EXTT6=
EXTT7=
EXTT8=
EXTT9=
EXTT10=
EXTT11=
EXTT12=
EXTT13=
EXTT14=
EXTT15=
EXTT16=
EXTT17=
EXTT18=
EXTT19=
PLAYORDER=
